<svg width="320" height="49" viewBox="0 0 320 49" fill="none" xmlns="http://www.w3.org/2000/svg">
<g clip-path="url(#clip0_166_313)">
<path d="M64.214 7.68V34.8943H80.9572V39.6448H59.1299V7.6844H64.214V7.68Z" fill="white"/>
<path d="M106.872 17.1327H111.41V39.6448H106.964L106.737 35.994C106.042 37.3619 104.957 38.4132 103.493 39.1434C102.024 39.8735 100.538 40.2386 99.0252 40.2386C95.6678 40.2694 92.9137 39.2357 90.7673 37.1332C88.6208 35.035 87.5454 32.11 87.5454 28.3667C87.5454 24.7159 88.6427 21.8436 90.8372 19.7586C93.0317 17.6737 95.7902 16.6312 99.117 16.6312C100.721 16.6312 102.216 16.9963 103.611 17.7265C105.001 18.4566 106.046 19.4463 106.741 20.6955L106.872 17.1327ZM94.2995 22.952C92.9093 24.3068 92.2143 26.1102 92.2143 28.3623C92.2143 30.6144 92.9093 32.4267 94.2995 33.7946C95.6897 35.1626 97.4164 35.8488 99.4711 35.8488C100.8 35.8488 101.989 35.5761 103.034 35.0263C104.079 34.4764 104.866 33.7639 105.395 32.8797C105.924 31.9956 106.317 31.0323 106.575 29.981C106.833 28.9297 106.833 27.8741 106.575 26.8096C106.317 25.7452 105.924 24.7687 105.395 23.8889C104.866 23.0048 104.079 22.2922 103.034 21.7424C101.989 21.1926 100.804 20.9199 99.4711 20.9199C97.4164 20.9199 95.694 21.5973 94.2995 22.952Z" fill="white"/>
<path d="M126.61 7.72399V20.6472C127.305 19.3979 128.42 18.417 129.945 17.7001C131.471 16.9831 132.979 16.6268 134.461 16.6268C137.788 16.6268 140.511 17.6561 142.627 19.7102C144.743 21.7644 145.805 24.6499 145.805 28.3623C145.805 31.9868 144.73 34.8459 142.584 36.9485C140.437 39.0466 137.696 40.0979 134.369 40.0979C130.828 40.0979 128.245 38.7607 126.61 36.0819L126.339 39.6448H121.937V7.72839H126.61V7.72399ZM128.97 23.1148C127.58 24.4827 126.885 26.2334 126.885 28.3667C126.885 30.5265 127.571 32.2947 128.949 33.6627C130.326 35.0307 132.026 35.7168 134.055 35.7168C136.052 35.7168 137.731 35.0395 139.091 33.6847C140.45 32.3299 141.132 30.5573 141.132 28.3667C141.132 26.1146 140.459 24.3332 139.112 23.0268C137.766 21.716 136.079 21.065 134.055 21.065C132.057 21.0606 130.361 21.7424 128.97 23.1148Z" fill="white"/>
<path d="M178.885 15.0301C177.796 13.9348 176.472 13.0903 174.915 12.4965C173.359 11.9027 171.82 11.608 170.308 11.608C166.706 11.608 163.851 12.7956 161.731 15.1709C159.615 17.5461 158.57 20.4844 158.601 23.9813C158.601 27.2099 159.584 29.9326 161.552 32.1539C163.519 34.3752 166.439 35.4881 170.308 35.4881C173.241 35.4881 175.829 34.5424 178.067 32.6554V26.1718H169.219V21.606H182.789V34.7095C179.431 38.422 175.27 40.2782 170.308 40.2782C167.493 40.2782 164.992 39.8296 162.797 38.9322C160.603 38.0349 158.859 36.8165 157.556 35.2814C156.253 33.7463 155.27 32.022 154.605 30.1218C153.941 28.2172 153.608 26.1718 153.608 23.9813C153.608 19.1428 155.09 15.0873 158.054 11.8147C161.018 8.54213 165.101 6.90585 170.308 6.90585C174.907 6.90585 178.824 8.52015 182.063 11.7443L178.885 15.0301Z" fill="white"/>
<path d="M196.131 30.1438C196.341 31.8505 197.106 33.2184 198.422 34.2521C199.738 35.2858 201.408 35.8048 203.436 35.8048C204.647 35.8048 205.862 35.5849 207.091 35.1406C208.315 34.7008 209.263 34.1114 209.928 33.3812L212.966 36.3503C211.847 37.5687 210.418 38.51 208.678 39.183C206.938 39.8516 205.163 40.1858 203.344 40.1858C199.685 40.1858 196.756 39.1038 194.562 36.9441C192.367 34.7843 191.27 31.89 191.27 28.27C191.27 24.8303 192.359 22.0151 194.536 19.8246C196.713 17.6341 199.541 16.5388 203.021 16.5388C206.772 16.5388 209.692 17.6957 211.781 20.0093C213.867 22.323 214.702 25.7012 214.278 30.1438H196.131ZM209.788 26.1718C209.666 24.4388 209.01 23.0972 207.812 22.1515C206.619 21.2058 205.067 20.7351 203.161 20.7351C201.408 20.7351 199.9 21.2058 198.645 22.1515C197.39 23.0972 196.581 24.4344 196.219 26.1718H209.788Z" fill="white"/>
<path d="M240.192 39.6404V27.5882C240.192 25.6088 239.663 24.0341 238.605 22.864C237.547 21.694 236.065 21.1046 234.159 21.1046C232.345 21.1046 230.846 21.76 229.665 23.0664C228.485 24.3772 227.895 25.9739 227.895 27.8609V39.6404H223.222V17.0843H227.488L227.759 20.37C229.875 17.964 232.389 16.7632 235.292 16.7632C238.107 16.7632 240.411 17.7221 242.212 19.6399C244.013 21.5577 244.913 24.1924 244.913 27.5398V39.6404H240.192Z" fill="white"/>
<path d="M255.982 7.95272C256.948 7.46447 257.919 7.46447 258.885 7.95272C259.851 8.44096 260.336 9.29431 260.336 10.5083C260.336 11.7224 259.851 12.5845 258.885 13.0903C257.919 13.5918 256.948 13.5918 255.982 13.0903C255.012 12.5889 254.531 11.7267 254.531 10.5083C254.531 9.29431 255.012 8.44096 255.982 7.95272ZM255.073 17.0403V39.6404H259.746V17.0403H255.073Z" fill="white"/>
<path d="M274.588 17.1327V29.1849C274.588 31.1335 275.125 32.6994 276.196 33.887C277.272 35.0746 278.763 35.6685 280.664 35.6685C282.478 35.6685 283.969 35.0131 285.132 33.7067C286.295 32.3959 286.881 30.786 286.881 28.8682V17.1327H291.554V39.6888H287.335L287.064 36.3547C284.948 38.7915 282.374 40.0055 279.348 40.0055C276.533 40.0055 274.26 39.0466 272.52 37.1288C270.78 35.211 269.91 32.5762 269.91 29.2289V17.1283H274.588V17.1327Z" fill="white"/>
<path d="M316.381 22.6573C314.868 21.2586 312.901 20.5592 310.483 20.5592C309.032 20.5284 307.873 20.7483 307.012 21.2234C306.151 21.694 305.718 22.3714 305.718 23.2555C305.749 24.8698 307.366 25.8287 310.575 26.1322C311.847 26.2554 312.94 26.4137 313.867 26.6117C314.789 26.8096 315.773 27.1439 316.818 27.6146C317.863 28.0852 318.663 28.7934 319.222 29.7391C319.782 30.6804 320.061 31.8373 320.061 33.2096C320.031 35.3386 319.152 37.0584 317.43 38.3692C315.707 39.68 313.408 40.331 310.531 40.331C306.173 40.331 302.772 38.9454 300.319 36.1743L302.772 32.8401C304.708 34.9999 307.323 36.1127 310.623 36.1743C311.895 36.1743 312.997 35.9324 313.937 35.4441C314.877 34.9559 315.358 34.2257 315.388 33.2536C315.419 32.2815 315.003 31.5645 314.142 31.1071C313.281 30.6496 311.97 30.3329 310.217 30.1482C304.166 29.572 301.124 27.3155 301.097 23.3919C301.097 21.109 302.042 19.3979 303.935 18.2543C305.823 17.1107 307.983 16.5432 310.4 16.5432C313.911 16.5432 316.783 17.5461 319.021 19.5563L316.381 22.6573Z" fill="white"/>
<path d="M41.1585 0.237529C40.1268 0.347495 39.1039 0.664195 38.2339 1.24041C37.8099 1.52193 37.4296 1.86941 37.0929 2.25209C36.7301 2.66996 36.4591 3.15821 36.0919 3.57168C34.7498 5.08481 31.9563 5.21237 30.3694 4.02914C29.5432 3.41333 29.0492 2.45883 28.2973 1.75945C27.5061 1.02488 26.5487 0.457458 25.5039 0.180345C23.4099 -0.378281 21.0186 0.356286 19.5279 1.9222C18.8197 2.66556 18.2689 3.65526 17.9454 4.63175C17.5782 5.73581 17.4514 6.92784 17.1804 8.05828C16.9268 9.11395 16.7258 10.1476 16.0744 11.0317C15.5411 11.7575 15.0558 12.5229 14.5181 13.2487C13.3115 14.8717 9.81427 18.5226 8.16618 15.4832C7.80771 14.819 7.64596 13.9744 8.05251 13.3014C8.5465 12.4789 9.44705 12.0698 10.1334 11.4452C10.8853 10.7678 11.8296 9.87491 11.9345 8.81044C11.9738 8.40137 12.1574 7.9879 12.2317 7.56124C12.3279 6.99381 12.3629 6.4176 12.3148 5.84578C12.1487 3.76963 10.7804 1.85621 8.96619 0.875322C7.09078 -0.136362 4.69077 0.00439317 2.88967 1.10845C1.11918 2.19491 0.0219137 4.1875 -0.0611464 6.25925C-0.135463 8.06708 0.7651 9.87051 2.03286 11.1065C2.40444 11.4716 2.83284 11.7267 3.21317 12.061C3.55852 12.3689 3.85143 12.7384 4.07001 13.1475C4.53339 14.014 4.69951 15.0521 4.58147 16.0242C4.45907 17.0007 4.03503 17.942 3.3006 18.6106C2.95088 18.9317 2.53121 19.1384 2.15525 19.4199C1.71372 19.7542 1.34214 20.1677 1.04488 20.6339C-0.157308 22.4946 -0.393377 24.8874 0.577114 26.8932C1.49078 28.7802 3.31809 30.0954 5.38148 30.3989C7.42301 30.698 9.60881 29.8403 10.8285 28.2876C12.6733 25.9431 10.7148 23.9725 12.6733 20.2381C13.5957 18.4742 14.9596 17.1458 15.7465 16.3805C16.6602 15.4876 17.4777 14.7574 18.7498 14.0624C19.9695 13.3938 21.2503 13.2355 22.5793 12.9144C23.764 12.6284 24.9793 12.5537 26.1247 12.105C27.2919 11.6432 28.2055 10.8954 29.0405 9.97169C29.8624 9.06117 30.6973 7.96592 32.0744 8.22543C33.3378 8.46296 34.0897 9.60659 33.9192 10.8822C33.7662 12.0082 32.7563 13.0023 32.0132 13.7809C31.1301 14.709 30.1902 15.6107 29.0667 16.2397C28.5596 16.5256 28.0176 16.7236 27.4711 16.9171C27.0908 17.0491 26.6755 17.2954 26.2952 17.3658C24.0831 17.7792 21.5432 18.0168 19.7727 19.5607C17.8929 21.2014 17.5126 23.735 17.1367 26.0707C16.9312 27.3419 16.6077 28.5031 15.9389 29.6204C15.2919 30.698 14.3957 31.6657 13.4908 32.5278C11.6328 34.3005 9.26345 35.3429 6.74541 35.7564C5.52137 35.9588 4.3017 36.1259 3.20007 36.7329C2.21209 37.2784 1.34214 38.0877 0.769465 39.0642C-0.415234 41.0832 -0.284081 43.8983 1.07548 45.8029C2.49625 47.7867 5.11046 48.772 7.47111 48.2441C8.70827 47.967 9.75744 47.3248 10.6536 46.4275C11.5061 45.5742 12.1531 44.5009 13.1804 43.8411C14.2602 43.1505 15.5891 43.1857 16.6558 43.9071C17.5782 44.5317 18.2514 45.5038 19.0471 46.2735C20.8088 47.9846 23.27 48.8863 25.6744 48.0374C27.847 47.272 29.4602 45.3762 29.8798 43.1021C29.9279 42.8426 30.0328 42.6271 30.0984 42.372C30.164 42.1256 30.1465 41.8793 30.1815 41.6286C30.2164 41.3603 30.3345 41.1095 30.3826 40.8412C30.4394 40.5157 30.5006 40.1946 30.5749 39.8779C30.894 38.5715 31.4317 37.3267 32.1531 36.1919C32.8175 35.145 33.7662 34.2477 34.6755 33.4207C35.541 32.6334 36.5859 31.7801 37.8274 31.868C38.2952 31.8988 38.7061 32.0088 39.0339 32.3387C39.235 32.541 39.5454 32.7654 39.694 33.0117C39.8339 33.2448 39.7815 35.0878 39.7159 35.277C39.4886 35.9412 38.9946 36.2491 38.435 36.6361C37.9673 36.966 37.5345 37.2915 37.1279 37.6918C36.9531 37.8678 36.7782 37.9733 36.6427 38.1889C36.4722 38.4616 36.3061 38.7343 36.1531 39.0158C35.5148 40.2034 35.2394 41.5054 35.423 42.8514C35.7334 45.1255 37.2941 47.0917 39.4318 47.8878C41.7531 48.7544 44.446 48.121 46.129 46.2911C47.7859 44.4921 48.2711 41.6726 47.1957 39.4557C46.658 38.3472 45.8055 37.5291 44.9006 36.7197C44.4809 36.3414 44.07 35.9544 43.7378 35.4969C43.3749 34.9955 43.2132 34.3621 43.1258 33.755C42.9465 32.541 43.2656 31.2962 44.0394 30.3417C44.7695 29.4444 45.8011 28.8638 46.5225 27.9489C48.07 25.9915 48.2842 23.2819 47.1345 21.0782C46.0416 18.9757 43.729 17.6473 41.3684 17.7748C39.0995 17.898 36.8613 19.3451 35.9913 21.4873C35.5323 22.6265 35.423 23.8625 35.27 25.0678C35.0995 26.4269 34.7935 27.6981 34.1596 28.9166C33.5913 30.0118 32.8525 31.0983 31.9607 31.9516C31.0995 32.7786 30.2514 33.5703 29.2197 34.1773C28.1137 34.8283 26.8635 35.1494 25.6088 35.3298C24.4766 35.4925 23.3968 35.6817 22.2995 35.994C21.0449 36.3502 19.9651 37.01 19.0733 37.9645C18.3257 38.7651 17.6219 39.8999 16.494 40.1771C15.4055 40.441 14.3258 39.8251 13.893 38.8135C13.3596 37.5774 14.0547 36.4822 14.8241 35.5409C15.6547 34.5292 16.6427 33.4692 17.705 32.6994C18.1771 32.3563 22.0328 30.9795 22.5837 30.8695C23.2831 30.7288 23.9913 30.61 24.6908 30.4561C25.8623 30.1966 26.999 29.7831 27.9301 28.9957C29.9673 27.2759 30.164 24.3904 30.6973 21.9492C30.9552 20.7703 31.3443 19.5519 31.9738 18.5138C32.6339 17.4318 33.5258 16.508 34.4656 15.6723C36.3891 13.9612 38.6798 12.9803 41.2328 12.7428C42.3826 12.6372 43.4886 12.4701 44.529 11.9423C45.5695 11.4144 46.4219 10.5919 47.0208 9.589C48.2361 7.55243 48.2317 4.95725 46.9072 2.96907C45.6307 1.06007 43.4318 3.11946e-06 41.1585 0.237529Z" fill="white"/>
</g>
<defs>
<clipPath id="clip0_166_313">
<rect width="320" height="48.3849" fill="white"/>
</clipPath>
</defs>
</svg>
